<?xml version="1.0" encoding="UTF-8"?>
<svg id="Layer_1" data-name="Layer 1" xmlns="http://www.w3.org/2000/svg" viewBox="0 0 130.78 148.64">
  <path d="M83.41,2.39c3.91,3.94,7.81,7.88,11.39,11.5,1.63-3.95,3.69-8.92,5.74-13.89.73.05,1.47.1,2.2.16,1.17,4.01,2.58,7.97,3.42,12.04.58,2.78,1.22,4.68,4.31,5.84,5.55,2.09,9.67,5.85,9.96,12.41.15,3.32,2.49,3.8,5.14,4.23,5.48.89,5.99,1.97,4.44,7.36-1.41,4.92-4.68,7.95-9.37,9.5-10.58,3.51-10.78,3.54-10.41,14.79.43,12.9-2.81,24.12-12.37,33.52-3.02,2.98-4.63,7.99-5.55,12.36-1.11,5.31-1.08,10.91-1.02,16.38.05,4.62.45,9.2,5.86,11.58,1.5.66,2.48,3.73,2.58,5.75.04.79-2.96,2.29-4.68,2.49-7,.83-10.08-.91-11.85-7.67-2.42-9.27-4.23-18.7-6.11-28.1-.77-3.87-2.48-5.5-6.67-6.26-5.29-.96-10.26-3.64-15.39-5.54-2.95-1.1-5.85-2.5-8.91-3.12-8.54-1.72-10.32-.64-14.91,6.67-3.51,5.6-8.11,10.62-7.51,17.96.26,3.18.19,6.08,3.61,8.09,1.46.86,1.85,3.55,2.72,5.41-1.6.61-3.18,1.65-4.82,1.76-7.86.53-9.01-.5-10.39-8.41-.28-1.63-.67-3.25-1.02-4.91-4.7,4.77-4.59,12.1-.19,16.53,1.22,1.23,2.08,3.59,1.82,5.23-.16,1.02-2.68,2.19-4.24,2.37-7.83.91-10.2-1.17-10.67-9.09-.25-4.16-.18-8.33-.45-12.49-.32-4.93.03-9.34,3.77-13.38,3.65-3.94,3.69-9.22,1.97-14.17-3.22-9.27-4.67-18.29.87-27.34.73-1.2-.29-3.79-1.01-5.52-4.21-10.03-4.11-19.82,1.86-29.05,5.56-8.61,14.04-11.76,23.99-11.52.57.01,1.12.51,2.94,1.38-2.81,1.41-4.72,2.36-6.63,3.32-7.2,3.6-12.77,8.82-14,17.01-.53,3.53.53,7.48,1.62,11,.87,2.83,3.44,3.26,6.54,3.01,9.38-.77,18.81-.95,28.22-1.49,6.25-.36,12.59-.44,18.72-1.56,5.88-1.07,9.49-5.34,10.65-11.25,1.16-5.86,2.39-11.36.36-17.78-2.65-8.37-1.23-17.35,1.3-25.84.72-.43,1.44-.85,2.17-1.28ZM95.47,22.28c-3.39-4.4-7.32-9.49-11.25-14.58-.54.24-1.09.48-1.63.71-.31,5.28-1.45,10.69-.71,15.82.73,5.08,3.36,9.89,5.21,14.94h-3.12c-.29,1.89-.59,3.52-.78,5.16-1.18,9.91-6.77,16.36-16.5,18.02-4.71.8-9.6.46-14.41.67-10.09.44-20.19.72-30.26,1.43-3.69.26-7.2-.13-8.48-3.57-1.54-4.16-2.66-8.79-2.51-13.17.24-6.95,4.52-12.2,9.34-17.11-3.71,2.11-7.45,4.38-9.82,7.64-6.32,8.72-6.25,18.17-1.97,27.91.95,2.17,1.61,5.55.59,7.32-4.21,7.25-4.28,14.31-1.45,22,2.29,6.21,3.5,13.1-.89,18.66-3.6,4.56-3.87,9.24-3.7,14.4.1,3.16.07,6.33.12,9.5.11,7.68,1.57,8.75,10.19,6.7-1.46-1.17-2.73-1.86-3.53-2.91-1.05-1.36-2.41-2.98-2.46-4.53-.31-8.53,1.72-16.3,9.28-21.38,8.41-5.65,13.42-13.6,16.6-22.99.62-1.83,1.9-3.45,2.87-5.16.48.2.96.4,1.43.6-.41,1.9-.83,3.8-1.39,6.36,14.21-2.81,24.63,8.18,38.17,9.68-.85-2.66-1.48-4.62-2.11-6.59.32-.25.65-.51.97-.76.92.96,2.25,1.77,2.69,2.91,1.31,3.4,2.5,6.88,3.32,10.43,2.23,9.66,3.94,19.46,6.46,29.04,1.74,6.6,3.98,7.34,11.5,5.33-.4-.73-.63-1.83-1.15-1.99-6.67-2.07-7.37-7.85-7.61-13.26-.59-13.08-.25-25.83,10.62-35.94,3.49-3.24,5.56-8.68,6.8-13.49,1.35-5.2,1.27-10.84,1.28-16.28.02-8.88,2.05-11.84,10.53-14.39,2.04-.61,4.14-1.43,5.85-2.66,4.47-3.22,3.81-7.06-1.09-9.71-1.8-.97-4.21-3.02-4.26-4.65-.24-8.07-8.33-13.74-16.07-12.79-2.12.26-4.11,1.6-6.68,2.66ZM21,117.35c-4.35,2.17-5.53,8.56-2.76,14.94,1.83,4.21,5.25,3.28,10.4,1.92-9.64-3.38-7.31-10.58-7.64-16.86ZM101.97,6.24l-1.37-.09c-.98,3.29-1.96,6.58-3.14,10.54,2.67-.16,4.51-.27,6.92-.42-.9-3.75-1.66-6.89-2.41-10.02Z" style="stroke-width: 10px;"/>
  <path d="M21,117.35c.33,6.28-2,13.48,7.64,16.86-5.14,1.36-8.57,2.3-10.4-1.92-2.77-6.38-1.6-12.77,2.76-14.94Z" style="fill: #fff; stroke-width: 0px;"/>
</svg>