<?xml version="1.0" encoding="UTF-8"?>
<svg id="Layer_1" data-name="Layer 1" xmlns="http://www.w3.org/2000/svg" viewBox="0 0 267.86 212.03">
  <defs>
    <style>
      .cls-1 {
        stroke-width: 0px;
      }
    </style>
  </defs>
  <g id="zDynsE">
    <path class="cls-1" d="M160.79,146.96c-5.65-.29-11.12-.38-16.55-.87-14.1-1.28-27-6.73-40.08-11.62-7.62-2.85-15.25-5.77-23.08-7.9-10.98-2.99-17.06-.94-23.1,8.67-7.31,11.62-16.49,21.23-27.35,29.43-9.86,7.45-10.78,18.17-10.23,29.25.06,1.12,1.93,2.49,3.26,3.14,3.15,1.56,5.53,3.71,6.7,7.04,1.52,4.32-.28,7.37-4.86,7.71-3.97.3-8.01.31-11.98,0-5.09-.39-7.73-2.97-8.91-7.95-.23-.97-.51-1.95-.56-2.94-.55-11.48-1.08-22.95-1.56-34.44-.15-3.58,1.7-6.32,4.05-8.82,3.55-3.78,6.62-7.82,8.36-12.86,2.02-5.85,2.24-11.73,1.35-17.73-.58-3.94-1.29-7.87-2.03-11.79-1.73-9.18-.47-17.92,4.12-26.04,1.81-3.2,1.65-5.67-.82-8.52C8.59,70.47,2.75,58.74.67,45.14c-1.99-13,.62-25.14,5.96-36.89.41-.89,1.11-1.65,1.69-2.47,1.29-1.83,2.92-3.86,5.21-2.88,1.55.66,2.94,2.68,3.5,4.39.57,1.75.26,3.9-.08,5.8-1.5,8.56-2.52,17.17-1.52,25.84,1.1,9.44,4.33,18.05,10.89,25.18,4.05,4.4,8.39,6.19,14.67,4.14,6.09-1.99,12.66-3.37,19.04-3.43,13.8-.13,27.62.6,41.42,1.26,12.49.6,24.99,1.58,37.3-1.3,5.63-1.32,11.14-3.26,16.55-5.3,5.99-2.26,10.32-6.69,13.5-12.12,5.05-8.6,9.86-17.34,14.8-26.01,3.21-5.64,6.12-11.66,11.81-15.22,11.88-7.42,24.45-7.97,37.19-2.44,2.14.93,4.05,2.96,5.45,4.92,2.35,3.26,5.34,4.85,9.22,5.16,3.15.24,6.3.51,9.45.83,1.81.19,3.64.35,5.39.81,5.01,1.3,6.17,2.8,5.62,7.73-1.45,12.88-7.21,21.38-23.05,22.66-1.99.16-3.97.47-5.95.67-3.98.39-6.84,2.52-8.8,5.85-1.18,2-2.32,4.08-3.05,6.27-3.58,10.71-7.25,21.4-10.41,32.23-1.47,5.06-1.91,10.44-2.71,15.69-1.76,11.47-7.52,20.88-16.66,27.46-7.24,5.22-10.17,11.46-10.77,20.01-.65,9.26-2.46,18.43-3.61,27.66-.33,2.63-.09,5.32-.14,7.98-.06,3.36,1.34,5.77,4.55,6.99,4.13,1.58,6.2,4.89,7.28,8.91.93,3.44-.78,6.08-4.38,6.27-4.65.25-9.34.32-13.97-.06-4.34-.36-7.26-2.78-8.35-7.33-1.35-5.61-3.13-11.12-4.58-16.71-.41-1.58-.4-3.28-.47-4.93-.42-10.98-.8-21.96-1.24-32.94-.04-.95-.4-1.89-.62-2.87ZM27.37,207.59c-.51-4.43-2.92-6.2-6.02-7.44-2.19-.87-4.67-1.88-4.54-4.66.3-6.45.38-13,1.6-19.3,1.55-8.01,7.83-12.94,13.9-17.66,7.96-6.19,14.94-13.21,20.19-21.9,1.37-2.28,2.88-4.5,4.54-6.57,5.76-7.17,13.34-10.16,22.17-7.7,9.58,2.67,19.01,6.01,28.29,9.58,13.54,5.22,27.14,10.01,41.74,11.16,3.57.28,7.22.91,10.54-.53,1.44-4.28-3.58-7.72-.73-12.71,1.12,1.49,2.16,2.34,2.5,3.41,1.06,3.32,2.39,6.69,2.65,10.12,1.01,13.11,1.63,26.24,2.41,39.37.11,1.81.1,3.67.52,5.42,1.11,4.66,2.44,9.27,3.66,13.91.61,2.29,1.2,4.79,3.82,5.42,5.33,1.29,10.71,1.62,16.09.1.11-3.97-1.76-6.37-4.68-7.47-5.44-2.05-6.98-6.22-7.07-11.4-.04-2.16-.1-4.34.15-6.48,1.13-9.76,2-19.56,3.69-29.23,1.42-8.14,3.68-16.16,5.88-24.14.71-2.58,1.49-5.49,4.78-7.28,2.5,4.72-3.15,7.7-2.15,11.74.3,0,.7.13.89-.02,10.13-7.8,17.23-17.36,18.54-30.59,1.76-17.77,8.44-34.14,15.09-50.46,2.5-6.15,7.56-9.34,14.5-9.67,4.1-.2,8.32-.9,12.19-2.24,6.29-2.18,9.91-6.85,10.45-12.62-2.16-2.67-4.39-4.35-5.04-6.5-.84-2.78-2.46-3.23-4.73-3.39-1.83-.14-3.66-.23-5.48-.44-5.11-.58-9.72-1.89-12.61-6.84-2.05-3.53-5.83-5.11-9.6-5.77-4.38-.77-8.99-1.34-13.36-.83-8.63,1.02-16.53,3.94-21.14,12.34,1.06.51,2.09,1,3.13,1.5-2.38,5.14-4.76,9.88-6.78,14.77-2.15,5.21-1.7,10.05,2.95,13.96,2.54,2.14,4.78,4.68,7.46,6.63,2.66,1.93,5.56,3.71,8.61,4.89,6.27,2.43,11.06-.34,11.95-7.03.43-3.21.21-6.73-.68-9.84-1.22-4.26-3.59-8.19-5.03-12.41-1.33-3.88-2.27-7.92-2.97-11.96-.22-1.28.89-2.78,1.39-4.18,1.39.94,2.17,1.83,2.06,2.58-.77,5.12,1.51,9.38,3.56,13.74,1.27,2.7,2.69,5.37,3.63,8.19,1.85,5.59,2.91,11.27.93,17.13-2.4,7.09-7.7,9.81-14.83,7.65-8.48-2.57-14.55-8.46-20.43-14.63-3.41-3.58-4.29-7.79-2.88-12.46.9-3.01,1.98-5.96,3.29-9.87-5.77,9.57-10.74,18.4-16.34,26.81-2.23,3.35-5.47,6.37-8.89,8.51-9.79,6.14-20.89,8.97-32.26,9.2-14.13.29-28.3-.3-42.41-1.11-16.03-.92-31.92-1.5-47.42,3.86-4.6,1.59-8.84.32-12.46-2.93-6.5-5.82-10.75-13.02-13.07-21.39-3.06-11.02-2.25-22.09-.48-33.2.4-2.51.36-5.09.53-7.64-.44-.15-.89-.3-1.33-.44-.95,1.42-2.11,2.74-2.82,4.27-7.23,15.61-7.52,31.43-1.44,47.48,2.94,7.75,7.6,14.39,12.87,20.62,2.95,3.49,3.66,6.74,1.22,10.84-3.57,6-5.29,12.56-4.49,19.61.55,4.78,1.05,9.58,1.82,14.33,1.85,11.39,1.76,22.63-6.43,31.62-5.41,5.94-7.52,12.18-6.42,19.86.14.98.03,2,.08,3,.37,7.49.69,14.98,1.18,22.46.19,2.84.61,6.09,3.94,6.81,5,1.09,10.13,1.43,15.65,0Z"/>
  </g>
</svg>