<?xml version="1.0" encoding="UTF-8"?>
<svg id="Layer_1" data-name="Layer 1" xmlns="http://www.w3.org/2000/svg" viewBox="0 0 202.12 172">
  <defs>
    <style>
      .cls-1 {
        stroke-width: 0px;
      }
    </style>
  </defs>
  <g id="ZsinH0">
    <g>
      <path class="cls-1" d="M175.18,69.41c0,3.25-.12,6.57.04,9.88.11,2.21.16,4.6,1.06,6.54,1.63,3.53.41,7.12.97,10.56-1.72,1.58-2.99-.24-4.84-.71-.09,1.64-.34,3.06-.2,4.44.33,3.29-.52,6.41-1.02,9.59-.45,2.82-2.74,4.27-4.73,6.58-.67-1.6-1.24-2.95-1.81-4.3-.48.48-1.42,1.05-1.34,1.4.64,2.97-1.68,5.03-2.3,7.62-.45,1.89-2.27,3.65-3.99,4.91-5.29,3.87-5.69,6.89-4.23,14.07.68,3.37.8,3.64-2.83,5.61,1.12,1.79,1.47,3.89,4.02,4.83,1.56.57,2.78,2.35,3.91,3.78,1.91,2.43,1.72,5.51-.26,7.8-.47.55-4.38,1.92-5.69,1.93-2.48.03-4.95,0-7.36,0-.17.47-.41.77-.37,1.04.29,1.88-.28,4.14-1.55,4.72-1.77.81-3.3,2.36-5.56,2.29-4.66-.16-9.33.08-13.99-.08-5.15-.18-10.4-4.34-11.85-9.45-.42-1.48-1.01-2.39-2.42-2.47-2.19-.13-2.82-1.34-2.65-3.26.23-2.5-.64-5.12,1.06-7.97-1.66.53-2.93.93-4.45,1.41-.57-1.16-1.12-2.21-1.59-3.29-.12-.28-.16-.81,0-.97,1.93-1.86-.09-4.78,2.22-6.8h-3.73c-.6-1.77-1.15-3.37-1.79-5.25-4.81,1.02-8.4-1.8-12.3-3.79-1.76,3.3-3.21,3.76-6.1,1.65-1.06-.78-1.99-1.79-2.82-2.82-.68-.84-1.12-1.87-1.87-3.18-1.21,1.65-2.25,3.06-3.7,5.03-1.64-3.33-3.03-6.16-6.11-8.13-.98,1.79-1.98,3.45-2.8,5.19-1.42,3.03-3.08,5.92-5.59,8.16-1.69,1.52-1.46,3.74-2.41,5.5,1.75,1.91.85,5.05,3.97,6.64,3.94,2,6.91,5.36,5.88,10.47-1.72,1.83-3.73,2.47-6.12,2.4-3.66-.1-7.33,0-10.99-.03-2.61-.02-5.97-2.22-7.8-4.24-2.82-3.13-3.69-7.14-5.71-11.69v9.73c2.02,1.83,4.87,2.73,5.99,5.84,1.89,5.24.69,8.5-5.6,9.29-3.44.43-6.99.15-10.49.06-8.72-.22-13.75-7.11-13.16-13.22.05-.47-.05-.95-.12-1.94-.84.36-1.46.81-2.1.84-.46.02-1.32-.49-1.35-.81-.23-2.77-.36-5.56-.39-8.34-.02-1.39-.57-2.98.93-4.06-3.6-1.91-3.77-2.95-3.1-6.91.76-4.54,2.73-8.2,5.62-11.74,1.46-1.79,2.79-4.13,2.6-6.91-.1-1.48.52-3.02.88-4.92-1.64.77-2.36,2.3-3.77,3.07-1.21-.44-2.1-1.02-2.23-2.65-.36-4.75.54-9.38,1.2-14.03.09-.66.64-1.26,1.12-2.17-.91-.09-1.52-.34-1.79-.14-.78.6-1.32,1.45-2.46.49-.87-.72-1.25-1.55-1.01-2.59.67-2.88.91-6,2.23-8.56,2.22-4.31,3.85-9.11,8.01-12.2.36-.27.58-.72,1.16-1.47C6.38,68.78.79,63.04,0,53.44c2.53-1.47,3.5.57,5.6,2.18-.65-2.48-1.2-3.91-1.37-5.4-.19-1.64.07-3.34-.07-4.99-.46-5.38,2.21-9.42,5.31-13.26,2.75,1.29,1.21,3.85,2.08,6.2.66-.89,1.36-1.48,1.6-2.22,1.5-4.68,4-8.54,8.39-11.03,1.5-.85,2.77-2.14,4.3-2.91.79-.39,1.94-.07,2.86-.07,2.17,2.64-1.9,3.47-1.41,6.01.73-.23,1.42-.33,2.01-.65,4.41-2.38,9.07-3.86,14.1-3.32,4.74.51,9.35,1.58,12.76,5.42-.64.69-1.29,1.38-2.06,2.21,4.24,1.33,7.88,3.36,10.94,6.55,1.71,1.78,2.64,3.92,3.81,5.95.62,1.06.45,1.99-.34,3.09-1.28,1.78-1.79-1.45-2.98-.09.2.8.46,1.74.65,2.7.25,1.27.96,2.19,2.26,2.08,1.84-.15,3.41.7,5.1.97,3.49.56,7.04.85,10.57,1.02,1.94.09,3.53,1.18,5.58,1.16,4.87-.05,9.6-.98,15.26-3.33.38-1.55.65-3.11-.76-4.41-.29-6.31-.01-12.42,3.91-17.89,1.82-2.54,3.8-4.89,6.11-6.92,1.66-1.46,2.29-3.08,1.88-5.38,2.18-1.71,4.51-3.23,6.43-5.16.95-.95,3.57-.76,2.74-3.29-.03-.08.98-.45,1.45-.77,3.24-2.27,6.83-3.22,10.77-2.98,1.13.07,2.28.01,3.62-.54-.55-.24-1.39-.33-1.6-.74-.34-.66-.26-1.53-.37-2.34,5.69-1.67,9.65,1.23,13.71,4.69,2.36-3.69,5.92-5.61,10.24-6,.99-.09,2.04.54,3.15.87-.76,1.47-1.31,2.53-1.88,3.62.11.09.33.42.56.43,1.83.04,3.67.09,5.5,0,2.78-.13,5.28.71,7.67,2.02.55.3,1.49.61,1.53.98.33,3.6,3.93,3.3,5.82,5.01,1.54,1.39,2.91,2.82,4.13,4.59,1.03,1.48-.76,1.58-.65,2.63,2.44,2.44,4.85,4.91,7.32,7.31,4.38,4.27,5.61,9.76,5.89,15.53.09,1.83-.5,3.74-1.08,5.52-.38,1.16-1.3,2.14-2.05,3.32-.69-.35-1.3-.66-2.28-1.17-1.87,5.12-3.72,10.22-9.86,12.3-1.58-1.13-3.47-2.47-5.75-4.1.77,3.74-.92,6.61-2.8,9.34-.43.62-1.69.67-3.11,1.18ZM13.86,44.91c-4.03.7-3.55-3.27-5.46-4.88-.42.72-1.09,1.37-1.16,2.08-.17,1.65.1,3.34-.08,4.99-.41,3.77,1.13,6.77,3.28,9.67.57.76.59,1.93.86,2.92-2.33.55-3.99.4-5.27-1.33-.26-.35-1.04-.31-2.34-.65,1.49,2.94,2.75,5.04,4.56,6.81,3.32,3.25,7.92,3.4,12.4,5.01-.56,1.09-.95,2.11-1.55,2.98-1.19,1.71-2.8,3.04-4.05,4.78-2.4,3.35-4.47,6.76-5.86,10.61-.33.93-.69,1.84-1.37,3.62,2.51-1.19,4.15-1.97,5.03-2.39,1.19.6,1.94.98,2.19,1.1-1.09,3.44-1.98,6.39-2.95,9.31-1.8,5.44-1.94,6.28-1.36,9.18,1.2-.62,2.43-1.25,3.88-2,.57.85,1.44,1.57,1.52,2.38.77,7.14-1.2,13.47-5.66,19.14-1.9,2.42-3.88,5.01-3.09,8.65,1.63-1.06,3.19-1.4,5.08-.31-.36.91-.68,1.78-1.04,2.63-1.35,3.22-2.7,6.45-2.21,10.07.03.22.36.4.96,1.05.47-.88.92-1.71,1.42-2.63,1.58,2.39,1.71,2.4,1.56,4.92-.18,3.28.54,6.26,1.99,9.19,1.26,2.54,3.27,3.97,5.93,4.08,4.49.2,9,.13,13.49,0,.95-.03,1.87-.86,3.25-1.54-1.55-2.03-2.45-4.39-4.08-5.12-4.03-1.81-4.05-5.2-4.62-8.63-.35-2.08,1.19-3.68,1.02-5.59-.16-1.81.77-2.92,1.64-4.36,1.14-1.9,2.86-2.74,4.51-3.63,2.88-1.55,4.85-3.97,6.68-6.47.96-1.32,1.21-3.14,1.86-4.71.14-.34.62-.55,1.04-.89.74,1.13,1.4,2.14,2.31,3.54,6.95-7.11,7.05-15.88,7.13-24.51.73,0,1.29-.11,1.35.02.68,1.39,1.63,2.65,1.55,4.37-.12,2.79-.03,5.59-.03,8.37,4.88.22,8.79,2.89,12.88,7.35.07-2.45.33-4.69,3.53-4.06,2.16,3.39,4.12,7.06,8.94,9.7-.78-1.5-1.22-2.03-1.31-2.62-.14-.95-.04-1.93-.04-3.46,1.37.46,2.49.59,3.27,1.17,1.19.88,2.03,2.26,3.24,3.1,2.83,1.95,5.85,3.49,9.57,2.81-.44-3.73.54-7.01,2.04-9.9,1.28-2.46,2.86-4.77,3.98-7.36.34-.77,1.17-2.22,2.91-1.06-.05.96.2,2.23-.23,3.17-1.11,2.38-2.54,4.61-3.82,6.92-.37.67-.9,1.39-.93,2.1-.1,3.11-.04,6.22-.04,9.56,1.9-1.1,2.54-3.16,5.02-3.25-.19,2.53-.2,4.74-.78,7.17-.5,2.09-2.55,4.39-.81,6.85,1.44-.36,2.88-.72,4.09-1.02,1.72,3.99-1.16,7.49-.12,11.3,1-.46,2.06-1.15,2.23-.98.62.64.98,1.55,1.36,2.4.13.28,0,.66.02.99.39,4.51,2.75,7.51,6.7,9.71,1.68.93,3.53-.12,4.68.74,2.35,1.75,4.8.52,7.16.88,2.6.39,4.91-1.04,7.39-1.45.73-.12,1.39-.66,2.07-1v-3.01c-2.76-2.92-5.78-5.52-7.52-9.39-1.75-3.87-1.63-7.89-2.68-11.85,1.35-.23,2.27-.38,3.37-.56-.44-1.22-1.03-2.21-1.13-3.24-.47-4.86.41-9.55,1.93-14.17.62-1.88,1.8-2.84,4.03-3.59,0,1.17.32,2.19-.06,2.69-1.39,1.87-1.09,4.38-2.18,6.08-1.12,1.76.33,1.74.69,2.33,4.21-2.02,8.15-4.42,11.21-8,1.24-1.46,2.33-3.04,3.57-4.5.24-.28.85-.24,1.47-.39.21,1.47.4,2.81.59,4.14.69-.1,1.2-.03,1.29-.2,1.79-3.07,3.49-6.13,4.55-9.63.83-2.74.38-6.17,3.45-8.17,1.18,1.36,2.42,2.78,3.65,4.2.24-3.73,2.23-6.8,1.77-10.26-.43-3.28-.72-6.58-1.06-9.74,3.16-1.02,3.91,1.7,6.05,2.87-1.18-7.22-2.32-14.17-3.38-20.65-1.17.18-2.31.36-3.5.54-.23-5.06-1.41-9.52-3.41-14.46,5.72,2.08,4.98,6.73,5.69,10.87,1.87-1.03,2.93-2.02,3.65-3.6.55-1.23,1.37-2.94,3.26-1.14.09.09,1.57-.76,1.6-1.23.17-2.32.64-4.85-.07-6.94-1.18-3.47-2.64-7.15-5.01-9.84-2.17-2.47-5.21-4.78-8.56-5.51-2.03-.45-3.01-1.52-4.1-2.6,1.07-1.5,1.98-3.01,3.13-4.32,1.5-1.72,3.38-1.74,5.1-.35,1.02.83,2.09,1.59,2.91,2.21-1.65,3.77-1.81,4.75-.28,5.3,2.91,1.04,3.67,3.85,5.56,5.69,1.41,1.38,2.35,2.94,2.48,5,.02.37.96.68,1.81,1.24.69-5.27-2.42-9.62-1.58-14.41,1.41.41,2.49.72,3.48,1.01-.68-3.84-2.79-6.57-5.18-9.32,1.31-.86,2.32-1.52,3.45-2.26-1.23-1.5-2.48-2.94-3.64-4.47-.31-.41-.31-1.06-.5-1.77,4.48.05,6.05,3.41,7.54,6.12.92,1.68,2.8,3.93.67,6.52-.65.78.01,2.82.36,4.2.65,2.56,1.37,5.02-1.02,7.17-.38.34-.42,1.17-.45,1.78-.06,1.5.14,3.02-.07,4.49-.19,1.37-.76,2.69-1.16,4,.99.96,1.8,1.79,2.66,2.57,1.91,1.75,3.26,1.53,4.53-.85,2.39-4.48,4.36-9.08,4.04-14.33-.01-.24.33-.51.5-.75h2.04c.31.65.62,1.3,1.44,3.03,0-3.55.75-6.32-.15-8.38-1.95-4.47-4.47-8.75-8.71-11.69-2.62-1.82-5.07-3.89-7.54-5.92-.4-.33-.5-1.03-.84-1.8,1.25-.18,2.17-.32,3.66-.54-1.14-.76-1.83-1.28-2.57-1.71-2.68-1.53-5.55-2.19-8.67-2.08-.71.02-1.46-.87-3.21-2.01,1.5-1.16,2.58-2,3.81-2.95-4.54.27-9.17-1.02-13,2.27q-1.8-2.17-1.07-5.92c-3.98.42-4.53,4.74-7.2,6.56-2.59-1.8-3.93-4.92-7.25-6.08.53,1.9,1.27,3.46.32,5.29-4.82-.94-9.57-3.92-14.72-.87,1.15,1.26,3.52.99,3.01,3.69-4.54-.1-8.81,1.28-12.82,3.52,1,.65,2,1.29,3.07,1.99-3.81,3.45-7.63,6.57-11.04,10.07-4.36,4.48-7.02,9.76-5.81,16.87,1.02-1.41,1.76-2.44,2.46-3.41,2.36.48,2.31,2.14,2.26,3.83-.12,4.04,1.12,7.74,3,11.25,1.3,2.42,3.56,2.78,5.5.95,1.84-1.74,1.88-2.28,1.53-6.05-.21-2.27-.04-4.57-.04-6.47-.97-.54-1.9-.78-1.94-1.12-.37-3.5.16-6.88,1.77-10.02-1.3-1.32-2.12-2.2-1.33-4.59,1.42-4.29,4.89-6.17,7.91-8.83.23,1.23,1.96,2.54-.84,3.21-1.15.27-1.96,1.95-3.06,3.13,1.13.57,2.37.9,2.38,1.25.02,1.23.63,2.62-.6,3.71-2.23,2-2.31,4.9-3.53,7.65,1.72-.34,2.89-1.71,4.43-.15-1.25,4.22-3.31,8.54-1.66,13.66,2.47-2.11,2.1-5.56,4.14-7.51,2.33-2.23,4.21-5.01,7.26-6.38-.3-.35-.68-.69-.92-1.11-.23-.39-.31-.87-.45-1.31-.11-.34.78-3.87,1.02-4.06,2.22-1.76,5.82-1.25,7.09,1.27.81,1.61,1,3.53,1.51,5.49-8.38,1.17-13.02,6.44-15.86,13.53-.92,2.29-1.1,4.95-1.24,7.46-.06,1.06.85,2.17,1.18,2.92,1.26-.3,2.29-.54,3.42-.81.37,2.57,1.15,4.58,4.15,5.4-.08-3.54.73-6.64,3.08-9.5.7.57,1.4,1.14,2.12,1.73-2.26,2.08-2.04,4.7-2.04,7.28-.01,4.13-.04,4.13-4.59,4.15-1.3-1.3-2.59-2.59-3.89-3.89-3,1.55-3.66,1.36-4.51-1.46-.4-1.34-.6-2.75-1.04-4.07-.41-1.25-1.01-2.44-2.04-4.86-1.33,4.81-4.15,5.62-6.94,5.37-4.22-2.52-5.77-6.42-7.76-10.55-3.41,4.01-8.16,4.61-12.45,5.37-6.61,1.17-13.36-.38-20.05-.82-2.68-1.92-5.65-.57-8.55-1.09-.32,4.87-1.31,9.23-3.83,13.11-.83-.31-2.06.65-2.42-.98-.1-.47-.9-.79-2.15-1.81.72,4.32-1.21,6.53-3.3,8.9-2.43,2.78-5.71,3.97-8.77,5.5-1.84.91-4.17,1.05-5.72-1.13,4.07-4.61,5.82-8.15,5.67-10.87-2.13.15-4.27.31-6.84.49.28-1.34.32-2.29.67-3.09.74-1.69,1.67-3.31,2.47-4.98.09-.2-.18-.57-.39-1.18-.97.38-1.93.76-3.13,1.24-.65-1.01-1.32-2.05-2.01-3.12-2.73-.11-5.11.86-7.46,2.39-1.32.86-2.76,2.27-4.77,1.37-1.93-2.92-1.01-6.22-1.24-9.24,1.57-1.57,2.98-2.98,4.4-4.4h7.51c1.86,2.22,3.73,4.46,5.59,6.68.88-.64,1.86-1.35,2.84-2.06,1.39,2.05,1.92,4.01,1.67,6.15-.23,1.98-.48,3.96-.74,6.14,2.2-.06,2.83-2.13,4.51-3.09,3.17,5.01.06,9.45-1.64,14.24,3.83-.81,5.09-3.85,6.86-6.28,1.65-2.26,2.25-4.83,2.05-7.66-.13-1.75.07-3.52.11-5.18,4.22-.74,3.72,3.26,5.7,4.88,1.82-2.57,1.33-5.23.69-7.92-.76-3.21-2.41-5.85-4.95-7.95-1.17-.97-2.18-2.05-1.2-4.18,1.78.29,3.68.59,5.78.93-.22-.75-.21-1.31-.49-1.61-4.31-4.65-9.64-7.1-16-7.19-1.73-.02-3.36.02-3.76-2.68,1.64-.83,3.4-1.72,5.34-2.7-7.65-3.14-12.71-1.39-18.32,1.41-1.96.98-3.71,2.46-5.35,3.94-1.13,1.02-2.12,1.36-3.44.69-.54-2.75-.02-5.24,1.95-7.45-.74-.13-1.24-.33-1.34-.21-2.18,2.7-4.76,5.21-6.33,8.25-1.46,2.84-1.83,6.24-2.76,9.7ZM45.86,133.2c-2.68,2.2-5.32,4.34-7.94,6.53-1.15.96-2.4,2.13-1.65,3.74,1.32,2.8,1.75,5.87,3.38,8.62,1.49,2.52,3.34,3.9,5.96,4.92,4.16,1.61,8.4.75,12.61.89,1.61.05,2.35-1.95,1.69-3.73-.76-2.05-2.77-2.85-4.25-4.11-2.19-1.87-4.27-4.77-4.49-7.1-.38-3.92,1.09-7.03,3.48-10.09,2.47-3.16,5.95-5.93,5.72-10.6,1.53-1.1-.04-1.92-.52-2.03-1.17-.28-2.44-.09-3.01-.09-1.21,2.61-2.16,4.71-3.15,6.8-1.42,3.01-3.7,5.19-6.67,6.61-.33.16-.95-.28-1.16-.35ZM135.28,148.34c.7,5.16,3.54,8.74,7.24,11.26,3.97,2.71,8.46,1.43,12.44.02,1.2-3.34-1.05-5.37-3.05-6.21-3.71-1.56-4.24-4.85-5.43-7.76-1.23-3.02-.36-4.56,2.7-6.14,0-1.91-.03-3.88,0-5.85.04-1.91-.34-3.84.5-5.87-3.7,3.27-7.68,5.65-12.12,7.33-1.7.64-1.89,2.66-1.28,3.81.92,1.72.69,3.4.92,5.12.4,3.06.48,3.05-1.93,4.29ZM38.43,54.63c-2.25-3.45-4.23-4.51-6.78-3.58-1.13.42-2.56,1.13-3,2.1-.6,1.35-.4,3.06-.56,4.84,5.61-2.97,5.72-3.01,10.33-3.37Z"/>
      <path class="cls-1" d="M154.55,48.95c.55,3.65,2.84,4.49,5.42,5.02,1.35.28,2.33.97,2.16,2.71-3.27.87-5.96.02-8.36-2.68-2.72,2.06-5.59,4-9.56,2.61-.22-1.76.84-2.39,2.44-2.67,3.74-.64,4.34-1.37,4.54-5.55-3.54-1-4.61-3.53-3.85-7.27,1.32-.36,2.81-.72,4.27-1.18,2.69-.84,5.81.07,7.23,2.16.79,1.17.02,3.69-1.51,4.84-1.02.76-2.06,1.48-2.78,2Z"/>
      <path class="cls-1" d="M157.13,68.4c1.35,1.35,1.94,1.94,2.83,2.83,1.26-1.03,2.56-2.09,3.86-3.14.37.37.73.73,1.21,1.21-.94,2.27-2.16,4.31-4.77,5.12-.29.09-.67.57-.75.51-3.19-2.4-4.54,1.44-7.02,1.83-.18-.18-.51-.55-.89-.88-.94-.83-1.64-2.6-3.28-.91-1.94-1.61-5.43-1.04-6.15-4.41-.09-.42-.62-.74-.95-1.1.76-.41,1.2-2.34,2.45-.52,1.89-.55,1.11,1.63,2.4,2.17.85-.63,1.85-1.38,2.97-2.21.33.16.87.27,1.13.59.94,1.19,1.79,2.46,2.53,3.5,1.58-1.63,2.94-3.03,4.44-4.58Z"/>
    </g>
  </g>
</svg>